<mxfile host="Electron" modified="2024-02-15T08:22:02.998Z" agent="Mozilla/5.0 (Windows NT 10.0; Win64; x64) AppleWebKit/537.36 (KHTML, like Gecko) draw.io/21.2.8 Chrome/112.0.5615.165 Electron/24.2.0 Safari/537.36" etag="cG-vP6XRtW6iZ0fM3Ufw" version="21.2.8" type="device">
  <diagram name="Page-1" id="2XWkQP5S-hDbL94sL5Vg">
    <mxGraphModel dx="2058" dy="1180" grid="1" gridSize="10" guides="1" tooltips="1" connect="1" arrows="1" fold="1" page="1" pageScale="1" pageWidth="3300" pageHeight="4681" background="#999999" math="0" shadow="0">
      <root>
        <mxCell id="0" />
        <mxCell id="1" parent="0" />
        <mxCell id="APLwThIm-aDqV8bCMrbt-1" value="ComboBox" style="rounded=0;whiteSpace=wrap;html=1;fontSize=25;fillColor=#dae8fc;strokeColor=#6c8ebf;" parent="1" vertex="1">
          <mxGeometry x="1298" y="140" width="650" height="60" as="geometry" />
        </mxCell>
        <mxCell id="GTUZiYhcYFZlu0YLUMAn-1" value="" style="shape=image;verticalLabelPosition=bottom;labelBackgroundColor=default;verticalAlign=top;aspect=fixed;imageAspect=0;image=data:image/png,iVBORw0KGgoAAAANSUhEUgAAAo8AAAIKCAYAAABC7aUQAAAAAXNSR0IArs4c6QAAAARnQU1BAACxjwv8YQUAAAAJcEhZcwAADsMAAA7DAcdvqGQAAFGQSURBVHhe7d0HYBTVwobhb9MLNVQVpAQQuyhIk46Cei3YCxZs2C723kWx/Ipir9eGivWiV2w0CyIWFAEbHaSTRhpJNtn958zOJpuQMqSS5H3I7Jw5Mztt28eZmV3P/gcc6LeoiF/FB61hp2jGOX+OksO7iyqsUSXvuvvtg/LU/v6pivq1b+sCewiNicfpoyyV3kO1f8d6xVOlzdz99lFgewLrVVQMHQ6UjdBpDc9++x8Q8slTPDgWhcpAv2gwNFAaxYeKKWdURapw18oL3QG7oE7WtU5UcksbyQ5qPM8DAG4UfdzWokovtE7WttbVze6p3J1rbpFFI+2SExR3Con2zc7jQsJjSHAsFg6tUuDPLhfPViWHS1PhBGWr5F2rsMQqaCzb2VjUo71bz54IPG9rRtHbfQNXJxvaaPZurav0nq3SQ1L7j+fuuJ32WCcYGsFw6PSCN8WmK5zGhMdih61LBMfCUVYhIjJS8fFxioqMUlR0lMLDw2v0kyB0TVCKerV7an9lefYAqGuBj9zaVjdLrZR6tKp1wYlyNcOadUFBgXJzc5WX51V2drbyvV6rPrDMYFAsvHXqDc++++1f9BlbTnBs2rSpmrdoruS0TO3IyVNOXr683nxngoamaAcBDVvwRe7mOU8crz4u92Xow+J295v7uJl2p4e8mh5fM5vd6S208IOsDLvTugK1LDIiQjHRkYqNjlLrls2VlrZdGenp1usi8MIoK0AWhccygqNplWzdurVVE6ZNSWlWOm2ogTEosGOAxmNXPu0r+CCGSy72Y2kPSUV3C72P24eq8D7V9NiGzqYqb6fVNp8Ktqsq8wYakKjICO3ROkER4R5t3brNqbVeIvZrJPBCCRQ9ViI0Sg2Opu9Xs6ZNrVKY1m5MagTBEWiM+PSsFyrIQJVWU/M1KjvvmlwnAKXK8+Zr7aatyi8IHG0OnNJYlAkLb62KQHgMsiqCE5m+ac40h6pNiyMAoDoE3oQrFDqZm7u4+T+AmSbYhbLnX03/iSi5DJebC2D3sCkpRS2aN7czYGgmDH0xh5lkGRgM9q2SU4hvEm+f49h4Whyr6c0TaLB4jVRN0ZuvK2byXbxLmUo+dPXpoayufQCgQqYFMiltu+Li4+zhYCYsDJLWbVHLY7AyZCpzVbW5OKbhM++ifCgC7vBaqT7V9N5TbQ9JOTMyHw3BbldV9n4A6sSO3Dw7AwaTY/AQdvB1XPycR6cyOGy+jsdcVV2/Bd+cy+sA7BpeN1UXug+rsD9Lu2vwvXxXFN6nGh/bkrMyy6jMugGoVTm5XkVHRwderk6ANAPBYU/Pffd1AmXwsLVpfQz0O3fqrN9XrLdry9KsabwiI4qfOumGN79A6RnZzlBNqMY3QAAhzBtEWa+vwLsIqoPLfWkeCjeTlhbkSlM4XSkTBKt25e21tOVUdP8K120XBD/4ylKZeQKNwP6JnbRm7Rqr5Cm84rqwv0/Pfa1XVjAwmtdZoGD6nTt30h8rNtjDZXns/yYpsVs3Z6h0Hud7gTZsTipcTlZ6sq694RaFhYUHKqod7whA9Qt+EJf3+gpOg6qrhn1pHqpdnU3hw1sNyy9tFhW9PZe32F19ayc8ApWyX+LeWrNmbUhwDLxYTM85bG3fFr7ICs97dKFF82bav2f3crv99ulmd0cO6aejhga6Nq1b7dJyANQ1t69XPo13G8GHYlcfksKHupw7mmmCXW2q7eXtzkIfg9AO5Zp45+1at+x3bVj5V6mdGWem2d3Mn/25BvQ93BnamRn33azPnKHqsnPjonmOBVoerQq7yukHJ3DT8vj6y8+oQ4dETf92uTxh/kAXbjqfjjm4m9q3a67MzCx72vj4eH3w3Wq73KVptsaef7HCwyPs4bJceP5Y3XvnLc6Q9Mrrb+n2u+93hspT8bvlheefrXHnnqUjhh/r1Li3YdVSpySlpqbpgMOOcIaAhsx586jw9RWcDlVTxf0Y+jDt6qwK71vGHUOry3s6lLfcsu7nZl0regoGBT/wyuJ2PrsjN5tWx9vn5qGsbSYcHnnsCdq0ZatTU1xCyxb6ZuZn2rvH/k7N7sGEw6ce/z9defUNmv/Dj05tQHnjKivQ8hg8bB14Ipm+Ke36yYolmJl4POFavT1TazIytDY7Xf/kbtd6b5q8Xp/1urU6519QeFSBUyrffXffZgfHvbruX9gdfGDog2kvvYyu5u3V9QC7+2nhr/rfB286tUBjtzt+XNRXVXgvc3PX2n3L3Jl5qgQ77BoX+8zetezfnYSHh9vBMT09vdRuzdp19jS7GxMKTTg0ITG0BbImgmNFqhweC3yBZ2WbVtHyROVre366tuUka8uOwE/beEo8aWNa5iiutbsLZUyroAlnoe9wx518dsjw7mHDxk1OCWjoKnrd8Sm1ayr6ZK/B/VnyoSzzoS1lRE2sFk8d93ZxX9mTs38bhJIBsi6Co1Hl8Bh8Pv65Zb1Wp21SWn6qdihDeZ5Mu97vvO8EGjql+BaZimsSGFdk5zcn0+r4y6+/BQbKsHThPPvwsenmzZnh1EqvvPCk3QXHm/J9d99aOK05XB3KtBqWNi70PqXdL2jo4IGa/r9PnaHA8kPv17fPYXa9WR8zT8PMy4wD6p+yUgafTpVX2r6rwv4s6yGqtGqf4e6jPj1tzbpWcn3rajMb8DOnzoQGyLoIjka1HLY2dlhhMTLWq8gYryKi8xRpdTbrGRsMjkbPNh3VrUVXZyio9Kd1UnKKU9qZCYvmcHHw0LE57zD00PFRI4fpwkuv0kmnn2eXzeFuM505Z9K0aAZ16dxJvy353R53570PFJ5fGTwfMjh/Mx8zLhgEjWA4NF5+NbBsEw77HNar8H5mnh++85o9zpwXGVz2Nf++zJ4nAFSr0j6tK5MczH2Cnc3MuIwoUNb8K7Nct6pz3sHtrMn13R3UwPatX/lXhZ25CKWcZw/qobDgRTLmWRXsB3pWfxeeaHZotLrIaNOFhEfr2RI6m24tE+3OjdatEpzSzkzoG3fJv50hK7Q9ONmuC/py1lz98NNCuzPB0ow3/jfjC/s3G4NWr1mr2++eZJdNADTDJjgeMaCfPY8gMx/TEnrcsaOcmqJzHk0gNa2Khgmpoa2QofM0zLQmcJppzDyBhoOPhl0X/Egtbd+FjittfDnMm25o50Z507mZj9vlVKe6WGZdqYZttR9G+8YerBYdEnu66lB9Qg9Vhx7CrnaFzxXrpvDCs0BWrHLLY1AgOAZCY5TpRwXCY+DK7aKF5nm92rEjxxkui8cOeYf2OtgZdidt+3anVDVLf//LKe3MBMGSTEBs2bKFM1S68uYJNBy7GHKwC1zu2+DbbVmCswm+NYe+RVdVcD7VOc+K1NZy6lI1b6M9u8aw3xqgkuc4ljwHsrZUPTxab0S5uTvUt3WierfsrkOb9dAh8fvqoNj97frAJIF3K5MjfT6fCqyuIsGWvmCLXlDw0LQJcebcwqDbb75Wy1escobcM62VwUPR5pCzaZU0y543f4F9uDvITGPCbPDwdCjTqmhaNw1zCPzE446xy4YZF5ynETwUHnroHGhYygs5ZlywQ60L7vbK7n43gaMuQklDDUJmu2po2+pql+0Or/yCggL763jK0r5dO3ua3U1ZF8fURYCscng0OXDffTpq/LCRGj/kKF086GhdNOh4XTjwBPXcp4Pi4uLVtm0bJbRKUGRUpB0ew8LKe/oUjTNXVpvzGoPnFgYP9xrmuxnNuYXBeiP0MLZbJoS+/NwUex4m0JnzJA0TEoOHmE1nzlsseY5icJw5FzL4PY/mEHjoOoeOM8NmnkZw3kDjZV7ru8NHCXZNfXvMgs8znm87qaMEWdePxmtT37a/x7Hkl4MHux+/nWNPszvxeDz6v/vv2Sk4BgUD5COT7nVqapZnn316Okey/c4hbadv3XTu3Fl/rCz/S8Kv/vdl6nXIQc7QzsLCwuzOpPjQX5RZ/NsS/d9jTyhspy8J58UNNAylfTKV9voubTpUbBf3W8ldX5ndHpxHyHt5uXZ1mYXzd/q7wvVTq4KZlzafulCZfVBJ9ibX0XbX4mbWeyZA1uYv8+3X1fmScOu5YR9BNl8Q7jxZqhwezYb4fVYwdIbdMsv3hIXbO6O4ksMA6q+S7wxlvb539R0EAbuw30ru+srs8tB5OJ8cZSrtoa5omcH7VHXdgkqdTyXWu7ZVZvuryN7sOtj2OthUuFReeKz6V/VYczKth+ZnBnelM/fZOTgaPJWAhsO8xoOdYV7fvMZrVGlvq6XVVZV5/y71PRyVVocvj7p6VfIMqp+q7WprACgfHxO1IpgCzO4OdiVVNimUFm6qM0CWNn+3St6vzPmE7phqXPeGoLL7vop4NOofwiOAWsRHRPUqZ1+GBgFTDu3KEnx4KnqIKpqPUdH4mhBcZl0suwGwH1b7xh4EykR4BFDH+KSqvAr23a4EgZKBsaIA6UZw+buyHlVVW8upbrvReturUl/3I2oF4RFAHeITql7j4Wuw6uqhrY7/s6DmhRU+QexC0ZXWNfvECR4XKdkBAFCH6io1oRCpYPfhRMOil4VTqGTLY+hDu6sPcXnT7sp8ANR/u/r+geKC+68G9qGbENVQHzqz7aFdTaqNZQDVrBLhsax3CzfvItU1DYCGhdd91VVyHwbvFhqWCDPF1cT+YD+7wjvD7mkXw2NFD2N543kKACgP7xG1LrjLd+ddv7usG0GvzpinQFkd6oanxz49Ay8J+zzH4uc8duncWTNnfmmPBgAAQONw5JFHafWaNYGQ7jG/LmP/zoxd5mprAAAAuEZ4BAAAgGuERwAAALjWcMJj8hJ9/t+P9eOGAmvAp8zNG5XmDYzaJTlrNf/jDzX770ynooTC8VlORWX55ff5avYc7Iq2BQAAYBe5CI8b9d4VI3TE6Os1Y2uJqJP2pW4YeaIm/5LjVFQns9yRGjx4cGF3RP/Ruv2rdGd8Cb7len/SK/o1x2MFyc918/Gjdfm0tYXhrKDAhEoXPEma89ij+nKzM1ySNX72Y49Y4ysX+/wZf2v6/eM0ekAfHXbooerVq4+Gnj5JX6c6E1SnirYFAABgF7lqeczPyFRE/kI9Pnm2Upy6AL+8GRnK9dRMA2Z+RrpaH3OrHpk8WY8++qgee+I+jd03xhlbjlaj9dAnX+rZMzvJI6+WPHWqjrltrrY7o+uKf8vnuumEU/XQ0u665Il3NGPmF/rkvWd09cA2zhQAAAC7N5epz6O2RwxX2y8n6v++TnPqypKvrOQNWrd+qzK8oa1zfhXk5SivwCrlbtfm9euVlF1xa2BY6x7q3bu3+vTpY3W91bNdlDPG4stR6sZ/tDE1Rz77O4aCPIpu3kKxHmtZvlzlZlvL9RYo35trLz+oIDtZG//ZqOSs/J0OH/tMS2V+lrZt+Eeb0/PKP7xsLSNt0zr9k5StMrfIv1nT77pH3/W8S+9OvVUn9U7UHm3aqUO3PjpxwsUa0tKZzlbxPvTlpGrTxq3KDB6aD+6L7Tuva8XbUtbyAAAAinPCY+B7HYM3gfhgboNBwqeC1qN19YXt9eXExzU/w6kuIXfle7p2tBXyho7R6WNG6PDDjtTV761Srj3yFz0wariufXyiThs6UiecOEoDeo/WLbO22ffdVdlLX9aFw/pr2PGn6ZSjh2vMpO+VFYzC1rIePHqk7py3XB9cPlrjpy7Xxi9v0VGHD9Vl722wJtisGTeOUp++I3XS6WM0rE8/nfLIAoUeEPf+9YouGHWkTjj5RI3s19+a/7dKCe6OEDnL39KVI/tpsLUeJw8/XAPPeUaLSjnF0LfmE735fVudOeF4dQx3KkvhZh9OePAWjRlxtMYcM1T9jrpGHy6YrhuPHaxRY07QyMP76cznlyr0RILytqXc5QEAgEbJToPO937beTCk7Pp4syemlQ676C5d1GKG7nv6J+10uUjWj3p4/CStGva0vl30o77/6RfNndxXv997jV74M9A85vEk67ufE3THzB/1w88/6M2xYfrkiXf1d5nNdVY4W/S2Hrj/ft1vugde1LwkqzL7Rz169ZNKPf4FffXT95o//1Pd0v5vLQ49Lm23RO6hU56bqRfP6a49Rj2oWQvn6YXT9zIj1eTwm/SRtY4L5v+geS8dq9Q3n9fnwXMDPan6ds4OjZv2jeYv+Fnfv32eIqbdrsnflUiF2T9r8hWPKvm0qdb2LtCPP76ncXmv6d7X/1TJa3XS/16idc0OVK+9I52aUrjah0lauPogTZm7QAt+mq4Jrb/SxKunqc3EWfrhh580a1JvrXj1Vc0PJuHytsXF8gAAAELt2smK0ftp3J1jFfnOvXpuUbZTGZC9+BPNzByuKy8doFZ2y1qk2o8Yr3MO3Kg5X6+2D+f6/fHqc9ppOqiJ+Y7yJtp/6OFqsW2NNhafVTEF3hzl5Djdjjx7PjuWfKrZ1rIuu6iPWphZhbVQ37NP1UGx9l1KiFBEhNXzhCksLFzh9tej76EhpwzTHt4tWvHbd1qwoYn2jNqijalOivVH6aDTxmlQG/uOanrwmRrbP1cLv1+hvMAUtuzfPtYXWUN0xpAYbVqxQis2ROiAfh20fsEilWxP9e7IVn5kjKLL2ePu9mFT9T7+SHU2R+8ju2hA//bydz5apx/WzFrTcO1xWF91zt2oDcHwWM62pLlYHgAAQKhdC4+WmIMu1t3nhOmdia/o95Bjm1lbNmtHQkftGe9UGJ7m2nOvOGWnpDstcTFq2bIo4UU2aaoYf4EKAu2gpYrvM073TJyoiaa79woNaS1lbt6s7JYdii3LE9NE8SYfueFdpfevOVoDR56hqx54VZ8t2RIIhYXnTcapbdsmTtmIVouW0fJm5yjfqTHMNmdkzNeUKy7WJZdcoksuHq87/peqZlFe5ZbYprg2bRWfukZry7hY3HC3D6PVrFnwoqEwRcVGK65FS8XZodiaPCpOseHWPvVVvC3prpYHAABQZJfDowkjvcbfrpOyX9E9r61QfqApT7EJrRSVsk4bQ49n+zO0eVOOmrVtqZDLXKosKi5Wnu1blRRyYl9B2pZiw+XZ/s3TmrzocD026yvNmPaiJl/WW3GhTYpWlMzIDEnGvjStX5+j5nu0suJvkZgWLRQTd4Rumz5Hc+YUdbNeOlddnDAXFH/AcPWN+1HvfrS8WOtlqJrZh2VvS4tafMwAAEDDUInwaInvoyvuOkHbP/xMayMCKalJr39peOxsPfX8AiX7TI1XW+Y8p9f+7KbjRnap5IIsOVnKyMpURkaG3WXl+dT8kOE6NO8LvTTtz8C5l94N+vK1T7Sm1BbMMMXERiovJVXZ5mRPa5r87Gx5PWHmt72tsJSpxR9O128hh849nnTNf/M9Lc00M8zXppnP6JWlHTVqaPHtaHrwkerrmaWXpi5Rhr1sv3L++Uqf/1zKFekthuqqa/pp9aMX6KpXftE2azvM9L68NC2fPUM/JdXMPixvW5rV1GMGAAAaLFf5wFN4rmCRpv2u0h2jc7V8szXeXH/TdKBuefoatf90vIb2GaAjBvTXqNv+0rBHH9PYzoHFeAJpzS4H2VVlCIvw6Y/nztag/gM0cOBADeg/SGe/8Jfy2xyjOyeO0tanTtXAPv3Uf9D5+qjVYB0S59zRFpxxuDoPOUp7/XK3ju4zROPf3aBWQ87VyU0/1vghR2jQwNGauHk/HZZQtCJ+tVGfxD90w4i+6nd4X42+9RcddMcjGtcjcFy8cDtajtQdj5yhvP+coQF9BmrwoH4acMrjWpRb2m4NV8dTntQ7Dw/TVmubBhx4oA46+GAdcGBfnTxpntLMrCuzD4MhOISZJlhV7ra4WB4AAEAoT499elpJJNAiZ27sf3Y28atL586aOXOmfN5ceT1RinZaGQsVeJWTl6+wqFhFBb9+xp+n9K1blFYQrzbtEhRb+LU05jsK8+QLj1ZksM7nVa5XioiK3CmcGma5ufl2k1ihMHPRibMe/tw0bd6WraiEdmoVK3mtdVGkNf8wv/KtZflDluWzpk1K9alJmwTFmbqCHKVtS9KOmDZq3zzCmt6sSIw1vVnPXBWExyg8N0mbk72Kb9NeLWKK4li+Nd5njS/c5oIsJW1KUnZEc7Vt20IxFeUuv1eZyVuVnOVXbMs2at0suniK34V96M/PU54iix4bs0/zfAqPilaEtR/K3xZHmcsDAACN0cgjj9Sa1WtMi5TdSGU3SwXLbsIjAAAAGo/ywiPHJgEAAOAa4REAAACuBcKjc5ja6dnMoWunCAAAgEYmmAOLMmGgQMsjAAAAXCM8AgAAwDXCIwAAAFwjPAIAAMA1wiMAAABcIzwCAADANcIjAAAAXCM8AgAAwDXCIwAAAFwjPAIAAMA1T4999vHbPzsTuAn8/Izd96tL5y6aNWumPeHff/+tZcuWKTs7Wzt27LDrAAAAUL/FxsYqLi5O++yzj3r06GHXjRx5pFavWS2P9U8e+9bqOWU34XHx4sVKS0vT/vvvr1atWpkpAAAA0EAkJyfbea9169Y68MADyw2PFR62Ni2OJjgOHjyY4AgAANAAmYw3bNgwpaSkaPny5U5t6SoMj+ZQtWlxBAAAQMNmMp9pOCxPheHRnONIiyMAAEDDZw5bZ2VlOUOlqzA8cnEMAABA41FR9uOregAAAOAa4REAAACuER4BAADgGuERAAAArhEeAQAA4BrhEQAAAK6FOb9HaA8ElVIFAACAxsTKgqFxMFD20/IIAAAA9wiPAAAAcI3wCAAAANcIjwAAAHCN8AgAAADXCI8AAABwjfAIAAAA1wiPAAAAcI3wCAAAANcIjwAAAHAtzPzUjN/+vRl/4c/OBH+Apnp5te3ntzTx0pN15OAB6jdgiI4+82o9NmOZMn3OJAAAANgtFOZCKygWlWur5dGfou8ePFVHnvWIfog6QhfcOkkP33e9Tt9vuz6+6QQde9V7WpXnTAsAAIDdVi2ER782Tr9V176aodFPfqqPnrhGZ44eqsHDj9P5d7yiT9+/Xh2/u0fXPbdEOc49AAAAsHuq+fCYu0Tv/uc7xYy5Q7eMaq9wpzootuc5uvWCblo27TV9l2ZqkrTgjSf09IeLtWXlTD175781/tLr9PCHv2t7icPbeZsWaOoD12n8xZfppkff16KUAmcMAABAwzRlyhQlJiaW25lpakqNh0ffpp81f3Uz9R99mJo7dcVFqduggeqQ8pt+XGXaHv3aMv9tTf/8P7r+pv8qo1NvHdp2oz68+SyN/89yeQN3UuYvj+vs467QtE17qt/gXor5dYrOPflmfZkUOCoPAADQEF111VWaMGGCM7QzM85MU1NqPDzmJW1Usr+tOu8V59TsLKpNB7WLylRSam6gwp+ntX+E6eznntaNF56n8fc+r0fOaKXfP/lSK/Ot8Xl/6NWJryvrpGf09hPXadw5l+ieF5/SefEz9ey7f8tMAgAA0FCVFSBrOjgaNR4e/eYKHbtzKkoRGB+uqMjAQW2PJ0Jt+x2jfq099rDUTIkHdlZEymalWPmyYO3Xmr1qT/XvFaGVixZpkemW56pD9xba9MdK2Ue/AQAAGrCSAbI2gqNR4+Exum1HtQ3brGVrMpyaneVsXKkN/nbqsmesPey3Viu2RVNF20MBUXFxivT7ZE57zEvdqrScfzTjoet17bXXBrqrb9bzv4WpVVQ+LY8AAKBRCAbI2gqORo2Hx7A9+2noPju0YPo32lxq62OGfp3xlZITh2hAx5KX05QuIq6pYsP31ElTPtOcOXOKdTMmn6D2znQAAAANnQmNtRUcjRoPj4rsqVOvOFoxsyfqxpeWKrNYgMzTuo/v0e3veXXkFWdq/9CmxnJEdu6vw9uv0+z/LbKiZwhvipK2c8EMAABATan58GhpNfxuvXBnH62ZfIqGHj1ON97/qB594BZdcvxQHXPzD+p+0/O696g2Cp7hWKEmfTX+mpHKfuMijbn4fj335jt6/YnbNHb0eL29ka/rAQAAqCm1Eh6lGHU/6xnNnPOmbj+hswo2/K2//8nTXkffqNdmz9Lz5+6romuxw7XHEWfp5EOaFw+TrfvrnLN6q7ndsBimPY57TJ9Mf0gnttushXPnaOG2tjrxwSd0yb4R9uQAAACofp7uPXqYi53NJc/m5wrtK58DZb+6dOmic8aO1fnnn29PDAAAgIbt1Vdf1RtTp2r16tXymKY8j3VrOjPS6tdSyyMAAAAaAsIjAAAAXCM8AgAAwDXCIwAAAFwjPAIAAMA1wiMAAABcIzwCAADANcIjAAAAXCM8AgAAwDXCIwAAAFwLs3+T0GL37N8pDJbtIgAAABoh+xernXLwZ6yNClseY2NjnRIAAAAauwrD444dO5wSAAAAGjvOeQQAAIBrhEcAAAC4xjmPAAAAKFRR9qswPMbFxSk5OdkZAgAAQEOVlJSk+Ph4Z6h0FYbHffbZR4sXL3aGAAAA0FAtWbJEPXv2dIZKV2F47NGjh1q3bq2vv/7aTqMAAABoWEzGmzNnjtq0aaNu3bo5taXzdO/ew/5qcL/9TZCBL4AMlrt07aLZs2bZEy5fvlx///23srKy+PoeAACAesqc0xia5cywOVRtWhyDwXHEyJFatWq1PB5PoDOVwbLb8AgAAIDGobzwyFf1AAAAwLUw09Io59cKi26d3y8MVAAAAKAxKcyAVsE5Mh3gp+URAAAA7hEeAQAA4BrhEQAAAK4RHgEAAOAa4REAAACuER4BAADgGuERAAAArhEeAQAA4BrhEQAAAK4RHgEAAOBaIDyG/hZh0e/PAAAAAA7zU4W0PAIAAGAXVH94TF6iz//7sX7cUGAN+JS5eaPSvIFRuyRnreZ//KFm/53pVJRQOD7Lqagsv/w+X802uFa0LQAAAPWEi/C4Ue9dMVKDBw8u7I7oP1q3f5XujC/Bt1zvT3pFv+Z4rCD5uW4+frQun7a2MJwVFJhQ6YInSXMee1RfbnaGS7LGz37sEWt85WKfP+NvTb9/nEYP6KPDDj1UvXr10dDTJ+nrVGeC6lTRtgAAANQTrloe8zPS1fqYW/XI5Ml69NFH9dgT92nsvjHO2HK0Gq2HPvlSz57ZSR55teSpU3XMbXO13RldV/xbPtdNJ5yqh5Z21yVPvKMZM7/QJ+89o6sHtnGmAAAAQGlcH7YOa91DvXv3Vp8+fayut3q2i3LGWHw5St34jzam5sjnD20J9Ci6eQvFeqzA5stVbnaO8rwFyvfmKi+kAbIgO1kb/9mo5Kz8nQ4f+0xLZX6Wtm34R5vT88o/vGwtI23TOv2TlK0y2zf9mzX9rnv0Xc+79O7UW3VS70Tt0aadOnTroxMnXKwhLZ3pbPnKSt6gdeu3KsMbumS/CvKsbbEW4stJ1aaNW5UZPDQf3Bfbd17XirelrOUBAADsHqp8zmP20pd14bD+Gnb8aTrl6OEaM+l7ZQXnmvuLHjx6pO6ct1wfXD5a46cu18Yvb9FRhw/VZe9tsCbYrBk3jlKfviN10uljNKxPP53yyAKFHhD3/vWKLhh1pE44+USN7Nffmv+3SiklV+Usf0tXjuynwdZ6nDz8cA085xktKuUUQ9+aT/Tm92115oTj1THcqSxF7sr3dO1oKygPHaPTx4zQ4YcdqavfW6Vce+QvemDUcE148BaNGXG0xhwzVP2OukYfLpiuG48drFFjTtDIw/vpzOeXKseeW0B521Lu8gAAAHYTrsNjzqK39cD99+t+0z3wouYlWZXZP+rRq59U6vEv6Kufvtf8+Z/qlvZ/a3HocWm7JXIPnfLcTL14TnftMepBzVo4Ty+cvpcZqSaH36SPfvpFC+b/oHkvHavUN5/X58FzAz2p+nbODo2b9o3mL/hZ3799niKm3a7J35VIhdk/a/IVjyr5tKn6/qcF+vHH9zQu7zXd+/qfKnmtTvrfS7Su2YHqtXekU1OKrB/18PhJWjXsaX276Edrnr9o7uS++v3ea/TCn4E5ejxJWrj6IE2Zu0ALfpquCa2/0sSrp6nNxFn64YefNGtSb6149VXNDybh8rbFxfIAAAB2B67DY4E3Rzk5Trcjzz4svGPJp5qdOVyXXdRHLTxWRVgL9T37VB0Ua9+lhAhFRFg9T5jCwsIVbqa3QuWQU4ZpD+8WrfjtOy3Y0ER7Rm3RxlTnoLM/SgedNk6D2th3VNODz9TY/rla+P0K5QWmsGX/9rG+yBqiM4bEaNOKFVqxIUIH9Oug9QsWaZszTZB3R7byI2MUXc6WZy/+RDOt7bry0gFqZbdORqr9iPE658CNmvP1anvb/f6m6n38kepsjt5HdtGA/u3l73y0Tj+smbWm4drjsL7qnLtRG4LhsZxtSXOxPAAAgN2B6/AY32ec7pk4URNNd+8VGtJayty8WdktO2jPeGciiyemieJNPnLDu0rvX3O0Bo48Q1c98Ko+W7IlEAoLz5uMU9u2TZyyEa0WLaPlzc5RvlNjZG3ZrIyM+ZpyxcW65JJLdMnF43XH/1LVLMqr3BKHuOPatFV86hqtLeNiccPMb0dCx2LbJU9z7blXnLJT0p3WzGg1axa8aChMUbHRimvRUnF2KLYmj4pTbHiBCnwVb0u6q+UBAADUPdfhsTRRcbHybN+qpJAT+wrSthQbLs/2b57W5EWH67FZX2nGtBc1+bLeigttUrSiZEZmyFl/vjStX5+j5nu0Uui13jEtWigm7gjdNn2O5swp6ma9dK66OGEuKP6A4eob96Pe/Wh5sdbLULEJrRSVsk4bQ79C0p+hzZty1KxtS4VcKrQLyt6WFjWyPAAAgOrnPjzmZCkjK1MZGRl2l5XnU/NDhuvQvC/00rQ/Zece7wZ9+donWlOitS8gTDGxkcpLSVW23283LuZnZ8vrCZPHBDx/phZ/OF2/ZQemNjyedM1/8z0tzTQzzNemmc/olaUdNWpol2Ir3vTgI9XXM0svTV2iDHvZfuX885U+/znNHl9Mi6G66pp+Wv3oBbrqlV+0zdoOM70vL03LZ8/QT0lSk17/0vDY2Xrq+QVKNqPl1ZY5z+m1P7vpuJHFl+1WedvSrAaWBwAAUBPsXOLkLfumsGwfOraHFBbh0x/Pna1B/Qdo4MCBGtB/kM5+4S/ltzlGd04cpa1PnaqBffqp/6Dz9VGrwTokzr6bI9j0F67OQ47SXr/craP7DNH4dzeo1ZBzdXLTjzV+yBEaNHC0Jm7eT4clFDUV+tVGfRL/0A0j+qrf4X01+tZfdNAdj2hcj8BxcU8gdUotR+qOR85Q3n/O0IA+AzV4UD8NOOVxLcotLXaFq+MpT+qdh4dpq7VNAw48UAcdfLAOOLCvTp40T2lm1k0H6panr1H7T8draJ8BOmJAf4267S8Ne/Qxje0cmGfhsoOCITiEmSZYVe62uFgeAABA7bEyjsmCgb8Ap+zp1r2H32JPYP8ztaZsdV27dtHs2bPl8+YqN99uEisUZi46iQhEI39umjZvy1ZUQju1ipW8eflSZLQiw/zKz8uTP9wqO1+L47OmTUr1qUmbBMWZuoIcpW1L0o6YNmrfPMKa3itFxFjTm+9SzFVBeIzCc5O0Odmr+Dbt1SKmKI7lW+N91vio4FfuFGQpaVOSsiOaq23bFoqpKHf5vcpM3qrkLL9iW7ZR62bRxVv5/HlK37pFaQXxatMuQbHB5VjLLrC2yxeyXf78POUpsnCfWDtNuXk+hUdFK8LaD+Vvi6PM5QEAANSeESNGaNWq1YHGMtMYFmwQM3034REAAACNR3nhkWOiAAAAcI3wCAAAANcIjwAAAHCN8AgAAADXCI8AAABwjfAIAAAA1wiPAAAAcI3wCAAAANfCAt8Kbn4zpegmUAMAAIDGrDAT2j8mE0DLIwAAAFwjPAIAAMA1wiMAAABcIzwCAADANU+3bt3tS2b85tY+GdL6F6hQ165dNHv2bHvC/KVrlfXkDHl/XSXfljS7DgAAAPVbWLsWiuzVVfH/PlYRB3Sy60aMGKFVq1ZbSdFj/VmdqXTKrloed7z5tVJOuF+5n/9CcAQAAGhATLYzGc9kvR1vfePUlq3ClscvpvzHnpknKlJNbj1V0UcfqrDWzew7AwAAoH7zJaUr97NflDnpPfnzvEr4+HaNmjCu8i2P5lC18n12cIw9ZyjBEQAAoAEx2c5kPJP1TObLeuITZ0zpKgyP5hxHw7Q4AgAAoGEKZj3votV2vywVhsfgOY60OAIAADRcwazn25xq98vihEdzkqNz69wE/gEAAKCxsS9/KVEKcnW1NQAAAGAQHgEAAOAa4REAAACuER4BAADgGuERAAAArhEeAQAA4BrhEQAAAK4RHgEAAOAa4REAAACuER4BAADgWliTJjFqEm+6aLuLN11coIuOinAmAwAAQGMRFxutli3i7S6hZRMlJDRRq4R4q2uiML/f+eXC4j9baCutDgAAAA1d0W9am6wY6AJlDlsDAADANcIjAAAAXCM8AgAAwDXCIwAAAFyrhfCYp8UvXamxZ4/V2LFWd875uujy63T3E29pzl+pynemAgAAwO6vdloet6/U7+nt1WfgQA3o20v7tPdo3cynNOG4ARp28ctanOlMBwAAgN1aLR229khx++uE8Zfp8iuv0g13PqL//G+e5r17lToveliX3TZDW50pAQAAsPtpndhZR5/auy7PeQxTi17j9fCtQ5Q782V9uKzAqZfykxfroyfv1FXjL9alV9+t575YpgyfM9KxY80cvXjv1Rp/8ZW684W5WrboYz39xMuas65oPgAAAA3NlClTlJiYWG5npqk+ceoz/FCdMqSjujSPq8vwaHi0x8BjdGjMGv28JMmuyfz1CZ111Fma/JNPif0H69C2WzT9xhN13PWfaJMTILfPv1+nHjdB76xrpUOOOEwt/nxG1z7xgT59+TOtyvcEJgIAAGiArrrqKk2YMMEZ2pkZZ6apHvE67PiDdUjHWKucrdVfLazr8Ghp2l57NvNqe2qWfHm/65W7X1bKMU/rv6/dpwnnn6NLbn1WH/7nXMV+9rCenJcu5f2hNx5+R5nHPaX3X7pDl503Ttc+9pom7pei1V5nngAAAA1YWQGyeoOjpXMHHdzMFFI0e/pCfbYiKxAei36iMNgPdLWiwKvc/DBFx0bKt+5bzVm1l445vb8SQhoQ4w45Scfvs12//rBKO9Z/p69WtNfRp/VXC2e8aU7d/6jB2jvcGQQAAGjgSgbIag+OVr7qdUBLu7Tm2z+1PMUu1n3LY8Gm3/V3ait179ZK3pQtSg1rrT0SopyxjvAW2rN9rHK2ZygzZbNSwtuqQ+vi04THxCmq7ttRAQAAak0wQFZ/cLS0aKVOTqvj6lV2ja1u45Y/Rd++9r5Wdj1WJxwUp4gmLdTEu0Xrk/KcCRwF27V5a67iEporNjJaEXmp2pZe/MKY3JSt2s6XRgIAgEbGhMZqD45G8xg1N/31yVphVwTUWXj0Za7UjHvG6eqP4nXOXZfokFgpsstgDe2yQZ+8+a1SQg6bZ//2X320rJ0GDemuJp0O00EJq/TFR4uU5Yw3iXj+h19pU20dagcAAGjgWjY3F8nsrJbCo18FGz/WXePO03nnnKmTjj5Ch/Y+Rrd/v7eufmuqruvdNDBZbC9dfPtZavrpvzXm3Nv1xGtv6IVJl+vkC95S1Ll36/LDrI1oMUSXX95PSf+5SKdNeFSvTH1R911yoV7xHKKekYHZAAAAoGbUQnj0qMkBJ+rCU4bq0EMP1WH9hunEcbfp+U++14LPn9T5BzY1XyFeqHn/W/Xhl//R+APz9Ne8b7Q4I1Hnv/iF3r2xn+zD7opQ17Nf0P/euE4DwpdrwQ9r1fKkh/XEmR3k9cQoNpqv6gEAAKiq1O07AoVmcWoVKNk8Bx98gN9cZR24wjrwRYo+nxn2a++9O+n1PzvadW3XvmT3d09+bXr/Iv3ryT315KcTNSDeqQYAAIBrWztdZPcvOHCDNmRJY47toFbhafr2zWVa6fHIY3X18PrkZP3w0ef6K9VrRUbDp4w/p+m+KT+q3bEn6hCCIwAAQNWlJWttuikkqFevooBVD8OjX6nzHtJpg/ro8AGDNHjA4Rp46mT9M2SSnr36MMU5UwEAAKAqsrXmn8Ch6+YH9dDhCXaxvh629itv+xZt3JysLE9Tteuwl1rH8Q3hAAAAVVHssPWGf6xSvPqceIgOTQhXRHiu1i1dXx9bHg2Popq3V+d99tf+PfYmOAIAANSIbC38+Dct2m7Ksepy8D71NTwCAACgdmTr5+nf6f1v/tHq7TtCw2Pg8hNzuDpQDnYAAABobIoyYaCcvHKtPn//J1oeAQAA4B7hEQAAAK4RHgEAAOAa4REAAACuER4BAADgWlhmVq5MlxXssvMKu7y8fGcyAAAANBbZVg5MTcu2u5TULKVaXUpKppJTsmh5BAAAgHuERwAAALhGeAQAAIBrFYbHsHYt7L4vKd3uAwAAoOEJZr2w9i3tflms8Bj46ZnCHyIM+SkaI7JXV7uf+9kvdh8AAAANTzDrRR7SxboNZkGrb2fDYI2/4pbH+H8fK0WEKXPSe9rxxle0QAIAADQgJtuZjGeyniLCFT/hX86Y0nkSu3Xzmx+7DjQ4mr5phQwMJ3btojlz5mjHW98o/Y6pUr4vcC8AAAA0LBFhajZxrGLPGqzhw4dr5arV8nissGj+2QXTdxEeZ8+ebc8vf+laZT45Q97fVsu3OdWuAwAAQP1mznGMPLiLmkz4lyL239uuGzFiROXD46xZs+yZBKYxEwWElgEAAFD/2KHQYcrB4ZEjR1Y+PM6cOdOuM3cKCwsL3BkAAAANhsl6Pp+vMPMdeeSRZYbHCi+YMTMxoTE8PDxwRwAAADQoJuOZrGcyn8l+5XH1JeFmRgAAAGjY3GS+CqegtREAAKDxqCj7VRgeTRMmAAAAGoeKsh/HowEAAOAa4REAAACuhRVdUGO+oMdhF8q/0gYAAAANUyAFWrdOHCwctni6Jnazx5jLsu0gafdNkPQrsWtXPfnkkxVesg0AAICGwZzzePkVV2jVqlU7f0G4dVPhYWuCIwAAAII45xEAAACFquVLwgEAAACD8AgAAIBCtDwCAADANcIjAAAAqg3hEQAAAK4RHgEAAOAa4REAAACuBcJj4XmR5ndlHFah/NMlAQAA0GA5QbBYHrQGaHkEAACAa4RHAAAAuEZ4BAAAgGuERwAAALhGeAQAAIBrhEcAAAC4RngEAACAa4RHAAAAuFYL4bFAkR/OUItbPgh0t/1Xze//Qk3fWqzo1TucaQAAAFAf1E7LY2aKIrOayNtrb3kP3EMFraTw739Qs3+/pFb3/KLIbGc6AAAA7NZq6bC1R4ppq5xT+yjrjH7KvHSU0p68SMmP9FPBX/PU/MllHD8HAACoB+zMZv9mobkp7TcMa4xHvp59lH5RZ2nBL4pZ63PqLWlbFPP2HDWb+JGaPzxXcfOT5SmxUp6NqxX33Gdqfs8MNf1gtSL++kvxby1U9OaQ+QAAAKDSAvHLuvUXBbE6b/Dz9eohb3SqolYEjl17/lqglpe+p/ilfhUc1FnehCzFPPa2Eh5dpnBnvcN++0Yt//2pYjfHyttrT/lW/ahmb/+h6P+uUHi+JzARAAAAql3dHy2OayJfvE+e7V7Ju1Vxz/6isEH/Uup9I5R1wsHKvsgq33Ow/PPmKe7XXHua2FeWyjPkGKXePVTZx/dS1g0nKSMxxwqOzjwBAABQI+o+PPoKpAKP/NHh0qa1ilrfTDmjOsoX0oDo77mfcjrnKHJxqjxb/lHUP02Ua6ZxxkuRyu/XSQXWLAAAAFBz6j48btuqiO2xKtg7Vp7tmQoLi5OvWYkUGBYjX+tIeTJznWniVdAiwhkZ4I+OtK/LAQAAQM2p2/Do36Go//2hiA77KKdHpPzxsfLnZyo8rcCZwFGQo7CUfPmbx0iR4fJ7dygsq/iFMZ7tWfJw2BoAAKBG1V143JGimOf/q+ZfRWrHpYfJG23V7dVJeXtlKPrTtQoLubras/xPxayNV17vBPn22FP5zVIVPXdzSEOjFUJnrxZHrQEAAGpWeMuEhLud8k5aJrTUMUcf7QxVll/hvy1RzNIURSxcrpjZSxX7wQI1fWWhorP2UNYd/1JWT5McLRFN5d0rVzFT5yl2cYbCsjIUOe9nNX1puXTsaKUf2VKKbq78qM2Km/qzYv7xyrN9q6KnfafomDbyb8hV/uj95W3G8WsAAIDK+uyzz5Samip5POZP1q3Vt29rIzxaC8zKlz+huXxtmsq3R2t5e/XQjvOGKfOs/eRtVfzcRbXvpJxhe8iftFWRfycrPKyVci84SplHtXa+a8gjf4/uyjkgWmGrNitiU4F8wwYq6+AMxczNlvdf+ym/iT0hAAAAKqG88OjpmtjNb7G//NH0TUALDndN7Konn3giMJfdXPjMj9Ty7aZKf3q48mKdSgAAAOyyf0+YoFUrVxUPj2H27W5wtfUuy1bU3BWKSA9eVOOXZ/USNXlzvXyDespLcAQAAKgxheGx6PoUu+0xZHj34/n1W7Uc94Jan/uyWp1j9a+br/DeI7V97J679XoDAADUFztlKqvC1BUeti48dG3+2cNS4m582NqTmamwpGx5PNHytWsmXwwXyQAAAFQHc9h65cpVgfMcQ855NAP18LB1gL9JExV0bqv8Ts0JjgAAALWk3oZHAAAA1D7CIwAAAFwjPAIAAMA1wiMAAABcIzwCAADANcIjAAAAXCM8AgAAwDXCIwAAAArZXwZeDis8mh+aMV1J5hdnnCIAAAAahaLwWDwjBkp+Wh4BAADgHuERAAAAhVwcti5fRTMAAABA4+Hpmpjot8j6k7mx/9nDfiV2TdTcuXMCUwIAAKBRGDZ8uFauXGk3Itqd9c8qmD8OWwMAAMA9wiMAAABcIzwCAADANcIjAAAAXCM8AgAAwDXCIwAAAFwjPAIAAMC1sJCfLAwUQ4YBAADQCAXzoP094MXjIS2PAAAAcI3wCAAAANcIjwAAAHCN8AgAAADXCI8AAABwjfAIAAAA1wiPAAAAcI3wCAAAANcIjwAAAHBtNwqP6Vr5/VzNXbRRXqemNL7sVKXluPkZHHfzAwAAgHuB8BiSxeyiuXGTz3ZR7qb5eu2uizVm5GD179dfg0ccp3NvfEpfbzQLy9Xvb9yqB2asV35g8p15/9IL5wzWiMvf0/oK18/M7zY98Mk/hEcAAIBd5WStkpGrlloe87Tu4xt07MgL9cKyNjrq0tv10MP36YYLRqrtpuXaVGZaLCGym0665SFNuv4o7eVx6gAAAFBraiU8pi94RJfe+o32vvG/mvn2JF12ylEaPHiEjjv7Kj3yxhSdsbfbJBihtr2P0aj9WojsCAAAUPtqPjwWrNL0pz/Q9uF36sFzeyrOqS5TQYHSV83Sc3dcqYsvuUaTpv2qlAJnnLbp+9ef0FPTf9cOp8bwZazQrJcm6rrLLtGlV92ppz/5S+nOuFB5a2bp5Sef1Isz/lJ2sG7TAk194DqNv/gy3fTo+1pUuLAkLXjjCT394WJtWTlTz975b42/9Do9/OHv2u5zJgEAAGhkajw8+jf9oFmLo9T3+IFq66a5cOM7uuHGD5W2dx/12Wub/nfXObrwmaXKdUZv/W6q/rs0yxmScpdP1fjRJ+muL7PUZeBw9U/M1y+zf1VaiQP0/qQ5mnjJdXpjZQcddVQgxGb+8rjOPu4KTdu0p/oN7qWYX6fo3JNv1pdJ5s5+bZn/tqZ//h9df9N/ldGptw5tu1Ef3nyWxv9nOedRAgCARqnGw2Pe1tXa6G2nbp2aOjVl8/vytHqxdOazT+vmi8/TJXc9q0fOaKsVM+dqVWnnRRas0rS7H9ffve/Te28/qCvHnqHzJkzSy4+dqcIj4SYHZizU45fdrG+63aKXHxqjTpFWXd4fenXi68o66Rm9/cR1GnfOJbrnxad0XvxMPfvu34GLdvx5WvtHmM5+7mndeOF5Gn/v89b6tNLvn3yplW7P0wQAAGhAajw8+gryVSCPwly0OnrCItRuwL/Uv01w4qZKPLCLIlO3KCXY9BjCt+4rzViSoGPGjdKe4U5lSdm/6+UJV+vD5lfo+clnKDE6UF2w9mvNXrWn+veK0MpFi7TIdMtz1aF7C236Y6XSrGk8ngi17XeM+rUOrk8za306KyJlc6nrAwAA0NDVeHiMSthDrT2btWJtplNTnnDFtWiqKGfIiIyJsWr9O10mbuQmrdc2T3t1auskwp34lbHgVb34R3eNv+l09Yxxqi15qVuVlvOPZjx0va699tpAd/XNev63MLWKyrdbHv3W7om11id07lFxcYr0+8RpjwAAoDGq8fAY3qG/BnXL1PyP5mlraQmwCiJi4hWTt1UbkvOcmpI8anrEBN0xfL0eGned3l9TdKZiRFxTxYbvqZOmfKY5c+YU62ZMPkHtnekAAABQpMbDo6L315mXH6nwz+/SNc8tUnrJC1lykpTkplGyFJGJgzWo4zr9b+q3Sg6dry+kZTC6o46990Xdc+hS3TvuJn28PnCyYmTn/jq8/TrN/t8iZdg1Dm+KkrZXc8oFAABoIGo+PMqjNqPu0wu3Haq1U07XkJFn6+p7/k+PPTpJt11xuoaPuE6fp1YyrMX10WV3nqn4GVfqxHNu05RXp+rl/7tGY69+TxudSWyRnXTSQ8/p6r3n6dZxd+jzzQVSk74af81IZb9xkcZcfL+ee/Mdvf7EbRo7erze3lj43UAAAAAIEd6yZcLdTnknCQkJOv/885yhqohUm0OO01kn91eHsBT9s2q11m3boZiOfXXKlZfruJ7NFOnJ0/Y0n1p0OVC9erRShHPPnLQ0eVp30f4H91SbqGylpoWr5d77qFfPttZcpdi9h+iUE3opZtPv+nXJCqVE76cTzj9Rh7QJU0bo/CLbqNeI3mqdm6J1q7YrYd/u6rT/KJ08srPyVi3Sr0tXKCmss0Zdcb3OOri5tfxcpW+XWnbez7p/68L12ZGaqrDWndTzoH3VLvTkTAAAgAbitddeU6qVeTwej7mC2O4HOmuwS9dEv/zmghTTs4t23xQSExM1d+4cZzYAAABoDIYNG66VK1fuHBzNN+g40wAAAAAVIjwCAADANcIjAAAAXCM8AgAAwDXCIwAAAFwjPAIAAMA1wiMAAABcIzwCAADANcIjAAAAXCM8AgAAwDU7PPoLb4zCAgAAABql0DxoylbnVNHyCAAAANcIjwAAAHCN8AgAAADXCI8AAABwjfAIAAAA1wiPAAAAcI3wCAAAANcIjwAAAHCN8AgAAADXCI8AAABwjfAIAAAA1yoIj/zONQAAQONVPAuaIVoeAQAA4BrhEQAAAK4RHgEAAOAa4REAAACuER4BAADgGuERAAAArhEeAQAA4BrhEQAAAK4RHgEAAOAa4REAAACuWeEx8LMz9q25cQqFRQAAADQqgRwYkgStYnCIlkcAAAC4VqvhMXfTfL1218UaM3Kw+vfrr8EjjtO5Nz6lrzfSxgkAAFAf1FJ4zNO6j2/QsSMv1AvL2uioS2/XQw/fpxsuGKm2m5ZrU74zWQUyl7ypmy6+VzNTnQoAAADUqloJj+kLHtGlt36jvW/8r2a+PUmXnXKUBg8eoePOvkqPvDFFZ+ztcaYsnz95sb79LVk+d5MDAACgmtV8eCxYpelPf6Dtw+/Ug+f2VJxTXarcTfrp/Sm6fcIlGv/vW/R/0xYqucCMSNfCaVP00qy18vq36bvXpmjKU9O0MM2+FwAAAGpJjYdH/6YfNGtxlPoeP1Bty20x9Grpy9fotnfXqsUhwzVkf48WPHKOTrnzK6WpQNnJm7UpJVs+7VDKho3a8M9WZdjBEgAAALWlxsNj3tbV2uhtp26dmjo1ZQlT2389qo/fnazrLzhDZ116v566ub+2z/1Uv6a31KArHtDtp/VUtGdvHXfrQ3r4oQka2sq5KwAAAGpFjYdHX0G+CuRRWIXnKYar7d57KTovTet+X6CZH76hD37LVERuujLyAlN4rH8AAACoOzUeHqMS9lBrz2atWJvp1JQlQ4teuFDD+o/SuTdM1jvfLFNWRIzCyYsAAAC7jRoPj+Ed+mtQt0zN/2ietpbzdY4Fy97Q3U9v0qhnZ2rup+/qpcfv06VHtC76OnMAAADUuRoPj4reX2defqTCP79L1zy3SOklwqA/J0lJmdKOLeuV7GmnxI5NnYPTaVo0e6GS7XKAJyJC4fk5yvE6FQAAAKhV4S1btrzbKZdo5PMrISFB559/vjNcWR7Fdxuk/s1+0xuPPKIXpi/QX2tW6c+FX+uTN5/SfQ/PUbN/naje7b1a/OHLev+HJHly12jOS09qdm6CctZHauDYf2mfOCnCs1XfvP225m3MV8bS35TZ4zB1Lve7fwAAALCrXn3tNaWmptrXm9jXnHisW6er+ZZHW5z2Pe8FzZr7pu46pYfCtyzT0r83Kn/PYbpqyiSd3MFaqTZH66Fpz2hcjzT99M3v8gy9RXdfcILOGjdI7Zy5hHU8TY88e636+P7WH9tj1DzSGQEAAIBa4enStavf75fMjVOQ/c/qJyYm6qu5c51JAQAA0BgMHTZMK1euDLQ7euqk5REAAAANAeERAAAArhEeAQAA4BrhEQAAAK4RHgEAAOAa4REAAACuER4BAADgGuERAAAArhULj4HflLbYv1NYOAQAAIDGqJQ4SMsjAAAAXCM8AgAAwDXCIwAAAFwjPAIAAMA1wiMAAABcIzwCAADANcIjAAAAXCM8AgAAwDXCIwAAAFwjPAIAAMC1sMBPEdo3zm1Q8SEAAACAlkcAAAC4RngEAACAa4RHAAAAuEZ4BAAAgGuERwAAALhGeAQAAIBrhEcAAAC4RngEAACAa4RHAAAAuEZ4BAAAgGuERwAAALgWCI/8jDUAAABCmXy4U0b00/IIAAAA9wiPAAAAcK0Rhsd0rfx+ruYu2iivUwMAAAB3aiE85mnxS1dq7FkX6MG5qU5dKXJ/138mnK2zL3tOv+Y4dTUiV7+/cZse+OQfwiMAAMAuqp2Wx+2rtPiP3zTj7VnaUMbFOWnfT9WbXy/Sr8tT5HPqdleZS97UTRffq5nlZGEAAICGqHbCY1iYmh3WTx0XTtUHf+Y5lSH86/X5q9+qSa/91dS/+1/67U9erG9/S5bP41QAAAA0ErUTHq1A6PN1U7/eqfrknR+V7lQH5S55R2/82U3DezVVvlMXlLdpgaY+cJ3GX3yZbnr0fS1KKXDGBJQ9Pknfvz5FT73/i/5Z+l89cvONevDTtaW2auatmaWXn3xSL874S9mmIneTfnp/im6fcInG//sW/d+0hUq2Z5uuhdOm6KVZa+X1b9N3r03RlKemaWGaGQcAANDw1dIFM34rFLbVsNOOUO6nr2v25tDWxTR999Zn8o4cq6EJeSoIac3L/OVxnX3cFZq2aU/1G9xLMb9O0bkn36wvkwL3L3+8X1u/n6aPZr+t229+W2s9kfLlFg+ehj9pjiZecp3eWNlBRx3VU3HyaunL1+i2d9eqxSHDNWR/jxY8co5OufMra00LlJ28WZtSsq0QukMpGzZqwz9blbHzbAEAABqkWgqPJspFqvWgsTqtwy+aOn1Z4cUqvnWf6JVZsRp9en+1DD0MnPeHXp34urJOekZvP3Gdxp1zie558SmdFz9Tz777t/IrGm/NwmMtZcPiHTrh+bf15AP369YxXYs22OTLjIV6/LKb9U23W/TyQ2PUKdKMCFPbfz2qj9+drOsvOENnXXq/nrq5v7bP/VS/prfUoCse0O2n9VS0Z28dd+tDevihCRraytwPAACg4au18GiL2ldjzj5E6955Sz9nmoocLX7vXa0++ByddmC8wsOL0mPB2q81e9We6t8rQisXLdIi0y3PVYfuLbTpj5VKrmB84EhymJoderQG7xVuDxWT/btennC1Pmx+hZ6ffIYSo516havt3nspOi9N635foJkfvqEPfstURG66MpzTNT3WPwAAgMYorOgAcqBUOFw0ohp5tOdR5+pI3+d6ffYW+VO+1msfpKr/2UepQ4k8lpe6VWk5/2jGQ9fr2muvDXRX36znfwtTq6h87ahgvGl59FtBsGnb1ooLzDKEXxkLXtWLf3TX+JtOV88Yp9qWoUUvXKhh/Ufp3Bsm651vlikrIkYhuRYAAKDRKBkJa7fl0WjWT2NP76Bfp32oLz+cqnkJY3TOwBbOyCIRcU0VG76nTprymebMmVOsmzH5BO1Vwfj2znxKbyT0qOkRE3TH8PV6aNx1en9N0Tc+Fix7Q3c/vUmjnp2puZ++q5cev0+XHtG6hsI0AABA/VL74VFR2nfMWTpo3Xt6/K0V2u/sU3VA4SHjIpGd++vw9us0+3+LlOHU2bwpStrur3B8haI76th7X9Q9hy7VveNu0sfrA9d579iyXsmedkrs2NTJnWlaNHuhku1ygCciQuH5OcrhW8YBAEAjUwfh0Qpfexypc4f7tSpnoM45umPpK9Gkr8ZfM1LZb1ykMRffr+fefEevP3Gbxo4er7c3FlQ83o3ITjrpoed09d7zdOu4O/T55gI16TlIh8Uv0GPX3aOX33pVj1x1hV7P6KS2IS2YcZ0OUFf/93rxoSf1/OQX9FVosgQAAGjAwlu0bHm3U95JQkKCzj//fGeosnzKSt+hmNbddfAhHRVv10WrXce2arrfSB13UGtF2HVSTnq6Ilt31X6H9FDrCI+a7jNKJ4/srLxVi/Tr0hVKCuusUVdcr7MObm7dp6LxO5SWGqYWHffRIT3byr6Q2pan7Wk+tehyoHr1aKWIyDbqNaK3WuemaN2q7UrofbROOWZ/edb9poW/J6vVyCt1xbA2im69p7ofcJA6xFnht/l+OuKQeG1cukTr/J3U74iDtUcpracAAAD10auvvabUlFR5PB4r+HjsfqCzBjt36eo3X+Jt//PL6uwbu5/YLVFfzZ3rzAYAAACNwdBhw7RyxcpSw2OdHLYGAABA/UR4BAAAgGuERwAAALhGeAQAAIBrhEcAAAC4RngEAACAa2Eh331t4Tf4AAAAUJLJiObrHGl5BAAAwC4gPAIAAMA1wiMAAABcIzwCAADANcIjAAAAXCM8AgAAwDXCIwAAAFwjPAIAAMA1wiMAAABcIzwCAADAtTB+kBAAAABu0fIIAAAA1wiPAAAAcK3C8Jibm+uUAAAA0NBVlP0IjwAAAChU5fCYk5OjrKwsZwgAAAANlcl8JvuVp8LwWFBQoNTUVG3btk0ZGRlOLQAAABoKk/FM1jOZz2S/8ng6d+nql9/6M/9M33x3j933K7Fbot5/7z1lZ2fbSXTHjh12U2ZFMwUAAED9EB4erujoaMXGxio+Pl5xcXE65dRTtXLFSnk8HistesyfXbb/VRQeP5o+3W6+NKHRdF6vl/AIAADQQJjwGBkZaQdI08XExOiEE0+sfHj8dMYMOzDm5eUVC45mPAAAAOovOxxaggEyKirK7h9z7LGVD49ffvGFHRiDnc/ns8cBAACg/jOhMCwszA6Qwe6oUaMqHx5nz5pll01wDIwnOAIAADQkdjC0OhMcTX/EyJGVD49z58xx6gOhkfAIAADQsNgh0embbtjw4Vq50gqP1j+THAP1zviKwuNXc+faZQAAADR8JiAOHTasauERAAAAjUd54bHCLwkHAAAAggiPAAAAcI3wCAAAANcIjwAAAHCN8AgAAADXCI8AAABwjfAIAAAA1wiPAAAAcK2U8MivyQAAADR6pUVCq46WRwAAALhGeAQAAIBrhEcAAAC4RngEAACAa4RHAAAAuEZ4BAAAgGuERwAAALhGeAQAAIBrhEcAAAC4RngEAACAa6WER0+xHgAAABq7ot8qpOURAAAArhEeAQAA4BrhEQAAAK4RHgEAAOAa4REAAACuER4BAADgGuERAAAArhEeAQAA4BrhEQAAAK4RHgEAAOAa4REAAACuER4BAACwM4/TL4HwCAAAANcIjwAAAHCN8AgAAADXCI8AAABwjfAIAAAA1wiPAAAAcI3wCAAAANcIjwAAAHCN8AgAAADXCI8AAABwjfAIAACAMgV+pbDotwoJjwAAAHCN8AgAAADXCI8AAABwjfAIAAAA1wiPAAAAcI3wCAAAANcIjwAAAHCN8AgAAADXCI8AAABwjfAIAAAA1wiPAAAAcC3M/qXCohsAAACgFIGsSMsjAAAAXCM8AgAAwDXCIwAAAFwjPAIAAMA1wiMAAABcIzwCAADANcIjAAAAXCM8AgAAwDXCIwAAAFwjPAIAAMC1ML9TCPDwS4UAAAAopjAaWgVaHgEAAOAa4REAAACuER4BAADgGuERAAAArhEeAQAA4FpY4OqZ0i6vdq68BgAAQONkwmCJQBgWqAh8YY9dJDECAAA0aoHMWFoo9AQPW4eMdL740dTkFxRo27ZtgQoAAAA0eCb75ecXOEM7s8JjSHAMxMzgjXJzcrVs+XK7DAAAgIbPZL+c3BxnyMmJVs8pFV0wE6wwguXcvFwtX7bMGQIAAEBDZ7JfXm6eXQ5kQicZOr2iq60L02PRBJkZmXrzzbe0fv36QB0AAAAaLJP5TPbLzMwMyYZGYMDc2uHRYw+bG2cqp+f1erV582Y99fTTgQoAAAA0WCbzmexnMqDNyoROLLQEBsITWibc7dTYioJkgDnmnZyUrJUrV6pnz55q1qyZMwYAAAANgWlxnDTpAc2ZO0fJycl2nceEQquze3ZwdMpduyb6/bL+mausA6Wdy5bmzZupffv2Gnv22erevbt69OihNm3aBEYCAACgXjFXVS9btkzLly/X1DfftFsc07enB0YWC4yB0GjX2OEx0QqPJcKiUxEIjiH1kZERatqkqaKioxQTHaPw8DBrjD1pOcodWa5K37Pyi6yC2l9o/drMOlnbWtdInnqWxvF41g37Hbrhq4PNbCR71lLJLW00j0ntLzUQvGpbOQu1Rpmx5ut4cnNzlJuXZ5/j6PXmB8KhPYETFAvLgWG7pmtiNysrmg+CkmHRGjB/znDgL6Q+cFPYL4s9vrIqede6WGZVVHp9K72uld/IOtg99esxqW8ayWaiAvYHAspif3jWtiossvJ3rT/bWRePiX0It7ZVYZHl7iNrlD3eCYSBcqAfOFQdrAsdX1S2w2NRYLRmGFq2+1bB/ite3qlfBvs+ta0KiyxvW8pVJ5vZCNa1KupgkVVRJ/sIqCP2h1FjUMnNrNreqZOFVkqdPA8qvXuqsK672TLt+dp/oX3rNrTODAfrzX3skU7ZDo/mY8t8blk39geY+dupXGK8+ReotP/K4tyzcip518ayzMqq0rpWVh0ssioLrWerixpSF6+VwFszylQHu6dqi6zkvevR06BOnrNVWGSl17chLdMeZU1h9e3pCvuhdYGyPWTKdtEZn9jNHLa2KpxgWFY58FfUL9kKWRZ7fG2rwiIrvb51spmNYF2rog4WWZWF1snqNhb1aefa79ANX91sZh0stU4WWcsLrcLian1djUouskrrWhfLLI8TBnc6RG2PCwyXe/i6eHg0Pfs2EBztvlWw/5y+M11g+uC4cgRmVCnOkmpXJRdZpXWt5c2sT+taFXXy/KmKera6lddoNrSWWW/qjUE920z7w7a21fIi69s2Vnp969kyy7uzPca6sderWDAsXmcPmbJdDKlL7NbdyoPmzdz6qLXf052+HQ5NL2ScUxfoWyX7L9Avi3OPyqnkXau0zMqq0mbW8vrWye6pX49JZdXJdqLm1MXDab85oyzOx1j9UQerW+v7qL5tYyXvWifPvUBaq5Ry72mNtLfH/NnLcLYuNCCackidPeTU2eHR/sgzb5JOOAwExmA/dJxVsP9K6ZelnFEVKXe+5anCMiur0utaBcHHqVbVwSIrqy4ek/q0f+pKnTwujYDzNo/y1MEuqpPHpR49FQLBpXZV+jGp0qpW7s41tchAECzZd/ZMibAYqAodJ/0/yNrpDQp6PDEAAAAASUVORK5CYII=;" vertex="1" parent="1">
          <mxGeometry x="1295.5" y="210" width="655" height="522" as="geometry" />
        </mxCell>
      </root>
    </mxGraphModel>
  </diagram>
</mxfile>
